<?xml version="1.0" encoding="utf-8"?>
<!-- Generator: Adobe Illustrator 25.0.0, SVG Export Plug-In . SVG Version: 6.00 Build 0)  -->
<svg version="1.1" id="Layer_1" xmlns="http://www.w3.org/2000/svg" xmlns:xlink="http://www.w3.org/1999/xlink" x="0px" y="0px"
	 viewBox="0 0 16 16" style="enable-background:new 0 0 16 16;" xml:space="preserve">
<style type="text/css">
	.st0{fill:#FFFFFF;}
</style>
<g>
	<g>
		<path class="st0" d="M15.5,16H0.5C0.2,16,0,15.8,0,15.5V0.5C0,0.2,0.2,0,0.5,0h14.9C15.8,0,16,0.2,16,0.5v14.9
			C16,15.8,15.8,16,15.5,16z"/>
	</g>
	<g>
		<path d="M13.9,2.6l-2.7,2.7c0,0,0,0.1,0,0.1v5c0,0,0,0,0,0c-0.1,0.6-0.5,0.7-0.7,0.7H9.7H8.8H5.4c0,0-0.1,0-0.1,0L4.5,12
			c0,0,0,0,0,0l-1.9,1.9c-0.1,0.1,0,0.2,0.1,0.2h6.1h0.9h1.5c1.7,0,3-1.3,3-3V2.7C14.2,2.5,14,2.5,13.9,2.6z"/>
		<path d="M13.4,1.8H10H6.3H4.8c-1.7,0-3,1.3-3,3v8.5c0,0.1,0.2,0.2,0.2,0.1l2.7-2.7c0,0,0-0.1,0-0.1v-5c0,0,0,0,0,0
			C4.9,5,5.3,4.9,5.6,4.8h0.7H10h0.6c0,0,0.1,0,0.1,0L11.5,4c0,0,0,0,0,0l1.9-1.9C13.6,2,13.5,1.8,13.4,1.8z"/>
	</g>
</g>
</svg>
