<?xml version="1.0" encoding="utf-8"?>
<!-- Generator: Adobe Illustrator 25.0.0, SVG Export Plug-In . SVG Version: 6.00 Build 0)  -->
<svg version="1.1" id="Layer_1" xmlns="http://www.w3.org/2000/svg" xmlns:xlink="http://www.w3.org/1999/xlink" x="0px" y="0px"
	 viewBox="0 0 32 32" style="enable-background:new 0 0 32 32;" xml:space="preserve">
<style type="text/css">
	.st0{fill:#FFFFFF;}
</style>
<g>
	<path class="st0" d="M31.5,32H0.5C0.2,32,0,31.8,0,31.5V0.5C0,0.2,0.2,0,0.5,0h30.9C31.8,0,32,0.2,32,0.5v30.9
		C32,31.8,31.8,32,31.5,32z"/>
</g>
<g>
	<path d="M27.9,5.1l-5.5,5.5c-0.1,0.1-0.1,0.1-0.1,0.2v10c0,0,0,0,0,0c-0.2,1.2-1,1.4-1.5,1.5h-1.5h-1.8h-6.8c-0.1,0-0.1,0-0.2,0.1
		L9,24c0,0,0,0,0,0l-3.9,3.9c-0.2,0.2,0,0.5,0.2,0.5h12.3h1.8h2.9c3.3,0,6-2.7,6-6v-17C28.3,5.1,28,4.9,27.9,5.1z"/>
	<path d="M26.7,3.7H20h-7.4H9.7c-3.3,0-6,2.7-6,6v17c0,0.3,0.3,0.4,0.5,0.2l5.5-5.5c0.1-0.1,0.1-0.1,0.1-0.2v-10c0,0,0,0,0,0
		c0.2-1.2,1-1.4,1.5-1.5h1.5H20h1.2c0.1,0,0.1,0,0.2-0.1L23.1,8c0,0,0,0,0,0l3.9-3.9C27.1,4,27,3.7,26.7,3.7z"/>
</g>
</svg>
