<?xml version="1.0" encoding="utf-8"?>
<!-- Generator: Adobe Illustrator 25.0.0, SVG Export Plug-In . SVG Version: 6.00 Build 0)  -->
<svg version="1.1" id="Layer_1" xmlns="http://www.w3.org/2000/svg" xmlns:xlink="http://www.w3.org/1999/xlink" x="0px" y="0px"
	 viewBox="0 0 16 16" style="enable-background:new 0 0 16 16;" xml:space="preserve">
<style type="text/css">
	.st0{fill:#FFFFFF;}
</style>
<g>
	<path class="st0" d="M15.5,16H0.5C0.2,16,0,15.8,0,15.5V0.5C0,0.2,0.2,0,0.5,0h14.9C15.8,0,16,0.2,16,0.5v14.9
		C16,15.8,15.8,16,15.5,16z"/>
	<g>
		<path d="M8.7,10.8L8.7,10.8l3.1,3.1l0.2,0.2c0,0,0.1,0,0.1,0H14c0.1,0,0.1-0.1,0.1-0.1v-1.9c0,0,0-0.1,0-0.1L14,11.8l-0.5-0.5l0,0
			l-2.9-2.9c0,0-0.1,0-0.1,0l-1.9,0c-0.1,0-0.1,0.1-0.1,0.1v1.9c0,0,0,0.1,0,0.1L8.7,10.8z"/>
		<path d="M7.3,10.8L7.3,10.8l-3.1,3.1L4,14.1c0,0-0.1,0-0.1,0H2c-0.1,0-0.1-0.1-0.1-0.1v-1.9c0,0,0-0.1,0-0.1L2,11.8l0.5-0.5l0,0
			l2.9-2.9c0,0,0.1,0,0.1,0l1.9,0c0.1,0,0.1,0.1,0.1,0.1v1.9c0,0,0,0.1,0,0.1L7.3,10.8z"/>
		<path d="M8.7,5.2L8.7,5.2l3.1-3.1L12,1.9c0,0,0.1,0,0.1,0H14c0.1,0,0.1,0.1,0.1,0.1v1.9c0,0,0,0.1,0,0.1L14,4.2l-0.5,0.5l0,0
			l-2.9,2.9c0,0-0.1,0-0.1,0l-1.9,0c-0.1,0-0.1-0.1-0.1-0.1V5.6c0,0,0-0.1,0-0.1L8.7,5.2z"/>
		<path d="M7.3,5.2L7.3,5.2L4.2,2.1L4,1.9c0,0-0.1,0-0.1,0H2C1.9,1.8,1.8,1.9,1.8,2v1.9c0,0,0,0.1,0,0.1L2,4.2l0.5,0.5l0,0l2.9,2.9
			c0,0,0.1,0,0.1,0l1.9,0c0.1,0,0.1-0.1,0.1-0.1V5.6c0,0,0-0.1,0-0.1L7.3,5.2z"/>
	</g>
</g>
</svg>
