<?xml version="1.0" encoding="utf-8"?>
<!-- Generator: Adobe Illustrator 25.0.0, SVG Export Plug-In . SVG Version: 6.00 Build 0)  -->
<svg version="1.1" id="Layer_1" xmlns="http://www.w3.org/2000/svg" xmlns:xlink="http://www.w3.org/1999/xlink" x="0px" y="0px"
	 viewBox="0 0 32 32" style="enable-background:new 0 0 32 32;" xml:space="preserve">
<style type="text/css">
	.st0{fill:#FFFFFF;}
</style>
<g>
	<path class="st0" d="M31.5,32H0.5C0.2,32,0,31.8,0,31.5V0.5C0,0.2,0.2,0,0.5,0h30.9C31.8,0,32,0.2,32,0.5v30.9
		C32,31.8,31.8,32,31.5,32z"/>
	<g>
		<path d="M17.4,21.7L17.4,21.7l6.2,6.2l0.4,0.4c0.1,0.1,0.1,0.1,0.2,0.1h3.9c0.2,0,0.3-0.1,0.3-0.3v-3.9c0-0.1,0-0.1-0.1-0.2
			l-0.3-0.3l-1.1-1.1l0,0L21,16.8c-0.1-0.1-0.1-0.1-0.2-0.1l-3.9,0c-0.2,0-0.3,0.1-0.3,0.3v3.9c0,0.1,0,0.1,0.1,0.2L17.4,21.7z"/>
		<path d="M14.6,21.7L14.6,21.7l-6.2,6.2L8,28.3c-0.1,0.1-0.1,0.1-0.2,0.1H3.9c-0.2,0-0.3-0.1-0.3-0.3v-3.9c0-0.1,0-0.1,0.1-0.2
			l0.3-0.3l1.1-1.1l0,0l5.8-5.8c0.1-0.1,0.1-0.1,0.2-0.1l3.9,0c0.2,0,0.3,0.1,0.3,0.3v3.9c0,0.1,0,0.1-0.1,0.2L14.6,21.7z"/>
		<path d="M17.4,10.3L17.4,10.3l6.2-6.2L24,3.7c0.1-0.1,0.1-0.1,0.2-0.1h3.9c0.2,0,0.3,0.1,0.3,0.3v3.9c0,0.1,0,0.1-0.1,0.2
			l-0.3,0.3l-1.1,1.1l0,0L21,15.2c-0.1,0.1-0.1,0.1-0.2,0.1l-3.9,0c-0.2,0-0.3-0.1-0.3-0.3v-3.9c0-0.1,0-0.1,0.1-0.2L17.4,10.3z"/>
		<path d="M14.6,10.3L14.6,10.3L8.4,4.1L8,3.7C8,3.7,7.9,3.7,7.8,3.7H3.9c-0.2,0-0.3,0.1-0.3,0.3v3.9c0,0.1,0,0.1,0.1,0.2l0.3,0.3
			l1.1,1.1l0,0l5.8,5.8c0.1,0.1,0.1,0.1,0.2,0.1l3.9,0c0.2,0,0.3-0.1,0.3-0.3v-3.9c0-0.1,0-0.1-0.1-0.2L14.6,10.3z"/>
	</g>
</g>
</svg>
